<?xml version="1.0" encoding="utf-8"?>
<!-- Generator: Adobe Illustrator 16.0.0, SVG Export Plug-In . SVG Version: 6.00 Build 0)  -->
<!DOCTYPE svg PUBLIC "-//W3C//DTD SVG 1.1//EN" "http://www.w3.org/Graphics/SVG/1.1/DTD/svg11.dtd">
<svg version="1.1" id="Layer_1" xmlns="http://www.w3.org/2000/svg" xmlns:xlink="http://www.w3.org/1999/xlink" x="0px" y="0px"
	 width="264.666px" height="228.667px" viewBox="0 0 264.666 228.667" enable-background="new 0 0 264.666 228.667"
	 xml:space="preserve">
<g>
	<g opacity="0.3">
		<path fill-rule="evenodd" clip-rule="evenodd" fill="#1D1D1B" d="M161.229,61.823c-6.982-20.216-17.849-34.713-42.815-40.28
			c-30.157-6.73-59.861,10.896-66.193,39.302c-4.726,21.179-0.075,46.116,14.18,76.237c12.387,26.153,30.517,53.383,49.557,81.296
			c0.795,1.31,3.959,5.865,8.706,6.929c4.884,1.088,10.056-1.89,11.053-2.502c29.076-17.158,57.111-34.145,79.394-52.532
			c25.723-21.179,40.51-41.814,45.234-63.005c6.338-28.406-13.03-56.977-43.217-63.707C192.157,37.99,176.183,46.488,161.229,61.823
			z M156.375,67.06c-0.039,0.036-0.059,0.064-0.095,0.097L156.375,67.06z"/>
	</g>
	<g>
		<g>
			<path fill-rule="evenodd" clip-rule="evenodd" fill="#65AA9C" d="M118.055,216.478c-6.793,0-12.032-4.724-13.616-6.332
				C79.63,186.9,55.878,164.124,37.912,141.068C16.7,113.827,6.389,89.46,6.389,66.572C6.389,34.634,33.844,8.65,67.59,8.65
				c26.56,0,40.815,12.178,50.568,25.812C127.94,20.828,142.213,8.65,168.736,8.65c33.745,0,61.199,25.983,61.199,57.922
				c0,22.96-10.312,47.336-31.522,74.52c-18.028,23.152-41.788,45.921-66.595,69.151
				C130.363,211.656,124.867,216.478,118.055,216.478z"/>
			<path fill="#FFFFFF" d="M168.736,13.806c30.925,0,56.043,23.669,56.043,52.767c0,21.715-9.933,45.077-30.431,71.348
				c-17.75,22.794-41.408,45.479-66.055,68.56c-0.834,0.81-5.232,4.842-10.239,4.842c-4.866,0-8.938-3.758-10.01-4.861
				c-24.659-23.104-48.279-45.734-66.066-68.561c-20.475-26.294-30.434-49.62-30.434-71.327c0-29.098,25.15-52.767,56.045-52.767
				c25.584,0,39.352,11.782,50.562,29.997C129.409,25.58,143.153,13.806,168.736,13.806 M114.481,50.082
				c0.032-0.041,0.045-0.064,0.072-0.113L114.481,50.082 M168.736,3.494c-25.141,0-40.32,10.495-50.572,22.598
				C107.933,13.988,92.761,3.494,67.59,3.494c-36.589,0-66.356,28.297-66.356,63.078c0,24.079,10.666,49.482,32.609,77.662
				c18.179,23.329,42.06,46.238,66.996,69.604c2.477,2.497,8.734,7.794,17.216,7.794c8.426,0,14.885-5.312,17.346-7.682
				c24.94-23.355,48.837-46.264,67.084-69.695c21.938-28.117,32.606-53.53,32.606-77.684
				C235.091,31.791,205.324,3.494,168.736,3.494L168.736,3.494z"/>
		</g>
	</g>
</g>
</svg>
